<?xml version="1.0" encoding="UTF-8" standalone="no"?>
<!-- Created with Inkscape (http://www.inkscape.org/) -->

<svg
   width="465.17838"
   height="96.490303"
   viewBox="0 0 123.07844 25.529726"
   version="1.1"
   id="svg1"
   inkscape:version="1.3 (0e150ed6c4, 2023-07-21)"
   sodipodi:docname="inomeado.svg"
   xml:space="preserve"
   inkscape:export-filename="yggdrasil.svg"
   inkscape:export-xdpi="96"
   inkscape:export-ydpi="96"
   xmlns:inkscape="http://www.inkscape.org/namespaces/inkscape"
   xmlns:sodipodi="http://sodipodi.sourceforge.net/DTD/sodipodi-0.dtd"
   xmlns="http://www.w3.org/2000/svg"
   xmlns:svg="http://www.w3.org/2000/svg"><sodipodi:namedview
     id="namedview1"
     pagecolor="#ffffff"
     bordercolor="#000000"
     borderopacity="0.25"
     inkscape:showpageshadow="2"
     inkscape:pageopacity="0.0"
     inkscape:pagecheckerboard="0"
     inkscape:deskcolor="#000000"
     inkscape:document-units="mm"
     inkscape:zoom="3.6203867"
     inkscape:cx="127.47257"
     inkscape:cy="44.332281"
     inkscape:window-width="1366"
     inkscape:window-height="697"
     inkscape:window-x="-8"
     inkscape:window-y="-8"
     inkscape:window-maximized="1"
     inkscape:current-layer="layer1"
     inkscape:export-bgcolor="#00000000" /><defs
     id="defs1"><inkscape:path-effect
       effect="powerclip"
       id="path-effect7"
       is_visible="true"
       lpeversion="1"
       inverse="true"
       flatten="false"
       hide_clip="false"
       message="Usar a regra de preenchimento par ou ímpar na caixa de diálogo &lt;b&gt;preenchimento e contorno&lt;/b&gt; se nenhum resultado nivelar após converter o clipe em caminhos." /><rect
       x="38.946117"
       y="31.48835"
       width="77.616013"
       height="15.46796"
       id="rect1" /><clipPath
       clipPathUnits="userSpaceOnUse"
       id="clipPath2"><rect
         style="opacity:0.242424;fill:#ff0000;stroke-width:0.958012"
         id="rect3"
         width="419.84464"
         height="223.18056"
         x="93.11599"
         y="51.269665" /></clipPath><clipPath
       clipPathUnits="userSpaceOnUse"
       id="clipPath5"><rect
         style="opacity:0.242424;fill:#d40000;stroke-width:0.999999"
         id="rect5"
         width="222.07567"
         height="144.7359"
         x="56.103458"
         y="368.91528" /></clipPath><clipPath
       clipPathUnits="userSpaceOnUse"
       id="clipPath7"><rect
         style="display:none;opacity:0.242424;fill:#d40000;stroke-width:0.219299"
         id="rect7"
         width="2.0165451"
         height="1.5484185"
         x="45.087425"
         y="7.4101214" /><path
         id="lpe_path-effect7"
         style="opacity:0.242424;fill:#d40000;stroke-width:0.219299"
         class="powerclip"
         d="M -4.7773267,1.8912771 H 54.781045 V 22.398704 H -4.7773267 Z M 45.087425,7.4101214 V 8.95854 H 47.10397 V 7.4101214 Z" /></clipPath></defs><g
     inkscape:label="Camada 1"
     inkscape:groupmode="layer"
     id="layer1"
     transform="translate(-2.7805263,-0.75056518)"><g
       id="g7"
       transform="matrix(2.4474136,0,0,2.3674508,2.4144134,-14.412036)"><g
         id="g13"
         inkscape:export-filename="novo-chat-ai\src\assets\svg\yggdrasil.svg"
         inkscape:export-xdpi="96"
         inkscape:export-ydpi="96"><g
           id="g3"
           transform="matrix(1.0147466,0,0,1.0147466,-0.07636521,-0.46702952)"
           clip-path="url(#clipPath7)"
           inkscape:path-effect="#path-effect7"><path
             id="text1"
             style="white-space:pre;shape-inside:url(#rect1);shape-padding:0;fill:#ffffff"
             transform="matrix(1.2608601,0,0,1.2608601,-45.010071,-39.18276)"
             d="m 42.56634,36.541759 c -0.289062,0 -0.644547,0.08005 -1.066418,0.240209 -0.394531,0.160156 -0.798738,0.419941 -1.2128,0.779316 -0.410153,0.359371 -0.716747,0.720731 -0.919872,1.084012 -0.203125,0.359375 -0.304809,0.669775 -0.304809,0.931493 0,0.125 0.01765,0.246198 0.05281,0.363385 0.113282,0.371093 0.497968,0.642588 1.154214,0.814459 -0.0078,-0.0625 -0.01172,-0.127057 -0.01172,-0.193464 0,-0.332028 0.101684,-0.734361 0.304809,-1.207017 0.246093,-0.570309 0.527223,-1.081966 0.843629,-1.535087 0.316406,-0.453125 0.556785,-0.689496 0.720847,-0.709027 0.125,0.01172 0.193248,0.08213 0.204966,0.211036 0.01172,0.125 0.01766,0.212801 0.01766,0.263582 0,0.390625 -0.09778,0.960983 -0.293092,1.710979 l -0.09951,0.357414 c -0.152343,0.46484 -0.228565,0.839801 -0.228565,1.124957 0,0.214844 0.05076,0.410241 0.152322,0.586022 0.132812,0.242187 0.420046,0.419854 0.861452,0.533135 0.06641,0.01172 0.132784,0.01757 0.19919,0.01757 0.175781,0 0.349617,-0.04493 0.521492,-0.134777 0.238281,-0.121093 0.455068,-0.273452 0.65038,-0.457046 0.136719,-0.132809 0.251986,-0.24988 0.345736,-0.351442 l -0.01766,0.07029 c -0.246094,0.757812 -0.501926,1.443344 -0.767551,2.056621 -0.21484,0.347656 -0.464901,0.521534 -0.750057,0.521534 -0.300781,0 -0.58785,-0.08212 -0.861287,-0.24618 0.113281,0.1875 0.291022,0.339858 0.533209,0.457046 0.246094,0.121093 0.486311,0.181692 0.720682,0.181692 0.15625,0 0.322277,-0.01962 0.498058,-0.05869 0.363281,-0.07422 0.685491,-0.341754 0.966741,-0.802688 0.390625,-0.636718 0.777343,-1.546914 1.160155,-2.730504 0.207031,-0.632808 0.429757,-1.224518 0.668038,-1.775296 0.04297,-0.09766 0.111381,-0.267575 0.205131,-0.509762 0.277344,-0.675781 0.443371,-1.058657 0.498058,-1.148501 -0.0039,0 -0.0059,-0.0019 -0.0059,-0.0058 l 0.0059,-0.01177 c -0.140625,-0.109375 -0.296973,-0.185639 -0.468848,-0.228608 -0.167968,-0.04687 -0.308533,-0.07029 -0.421814,-0.07029 -0.09766,0 -0.193401,0.01172 -0.287151,0.03514 -0.207031,0.05078 -0.353535,0.17577 -0.439473,0.374985 -0.09766,0.257813 -0.238221,0.66617 -0.421814,1.22476 -0.214844,0.59375 -0.461,1.144483 -0.73834,1.652292 -0.402344,0.734371 -0.775313,1.101585 -1.119063,1.101585 -0.125,0 -0.187638,-0.09383 -0.187638,-0.281325 0,-0.203125 0.0606,-0.56242 0.181697,-1.078041 0.101562,-0.429687 0.171845,-0.796898 0.210907,-1.101585 0.04297,-0.304687 0.06453,-0.527286 0.06453,-0.667911 0,-0.257812 -0.03327,-0.490395 -0.09968,-0.697426 -0.117188,-0.324218 -0.285084,-0.519445 -0.503834,-0.585851 -0.214844,-0.07031 -0.38681,-0.105433 -0.515716,-0.105433 z m 16.330129,0.316298 c -0.09375,0 -0.18746,0.0098 -0.28121,0.02934 -0.203125,0.04297 -0.345727,0.152289 -0.427755,0.32807 -0.148438,0.332031 -0.345701,0.873122 -0.591795,1.623118 -0.109375,-0.367184 -0.386765,-0.550707 -0.832077,-0.550707 -0.335937,0 -0.630815,0.09761 -0.884721,0.292926 -0.253906,0.191406 -0.461014,0.437419 -0.62117,0.7382 -0.160156,0.300781 -0.261675,0.578128 -0.304644,0.832031 -0.04297,0.253906 -0.06436,0.461013 -0.06436,0.621166 0,0.515625 0.132759,0.916064 0.39838,1.201217 0.179688,0.195313 0.425841,0.292926 0.738341,0.292926 0.1875,0 0.380859,-0.07041 0.580077,-0.211036 0.203125,-0.144531 0.384773,-0.34957 0.544926,-0.615195 0.03516,0.613277 0.27724,0.94537 0.726459,0.996152 h 0.02343 c 0.230468,0 0.472717,-0.107426 0.726623,-0.32227 0.249853,-0.211414 0.46515,-0.478339 0.646914,-0.799446 0.01916,0.340378 0.09962,0.636214 0.249524,0.881506 0.05859,0.08984 0.142625,0.15819 0.252,0.205065 0.113281,0.04297 0.205121,0.06449 0.275434,0.06449 0.08984,0 0.181518,-0.01962 0.275268,-0.05869 0.08594,-0.5 0.236346,-0.964826 0.45119,-1.39451 0.21875,-0.433594 0.437571,-0.781182 0.656321,-1.042897 0.222656,-0.265625 0.382743,-0.398529 0.4804,-0.398529 0.113281,0.01172 0.16998,0.09969 0.16998,0.263752 0,0.222656 -0.115271,0.421842 -0.345736,0.597623 0.160153,0.140625 0.312434,0.210866 0.456965,0.210866 0.05859,0 0.117328,-0.0136 0.175921,-0.04095 0.1875,-0.08594 0.343683,-0.250006 0.468683,-0.49219 0.125,-0.246094 0.195282,-0.456989 0.210907,-0.632767 0.01953,-0.175782 0.02938,-0.296979 0.02938,-0.363385 0,-0.191406 -0.03327,-0.357366 -0.09968,-0.497991 -0.08203,-0.167968 -0.222596,-0.251981 -0.421815,-0.251981 h -0.06453 c -0.261718,0.05078 -0.511614,0.189542 -0.749892,0.416101 -0.234375,0.226563 -0.445387,0.480323 -0.632887,0.761573 -0.183594,0.28125 -0.330098,0.529327 -0.439473,0.744171 l -0.164039,0.322269 c 0.234375,-0.832027 0.537062,-1.464878 0.908156,-1.898472 -0.144531,-0.09766 -0.304619,-0.166002 -0.4804,-0.205065 -0.175781,-0.03906 -0.32432,-0.05852 -0.445414,-0.05852 -0.09375,0 -0.185428,0.0077 -0.275268,0.02337 -0.207031,0.03906 -0.351666,0.148553 -0.433697,0.328241 -0.117187,0.265621 -0.23042,0.611318 -0.339795,1.037096 -0.09649,0.38598 -0.145133,0.679831 -0.156613,0.90232 -0.04888,0.08317 -0.06935,0.129171 -0.130538,0.228438 -0.347653,0.574215 -0.628785,0.861375 -0.843629,0.861375 -0.07422,0 -0.111394,-0.07231 -0.111394,-0.216836 0,-0.121094 0.02546,-0.287054 0.07624,-0.497991 0.105469,-0.433593 0.261652,-0.937496 0.468683,-1.511715 0.207031,-0.578121 0.412107,-1.103549 0.615228,-1.576202 0.203125,-0.476562 0.351499,-0.779215 0.445249,-0.908121 -0.144531,-0.09375 -0.302749,-0.160202 -0.474624,-0.199264 -0.171875,-0.03906 -0.316344,-0.05869 -0.433531,-0.05869 z m 15.380881,0 c -0.09375,0 -0.18746,0.0098 -0.28121,0.02934 -0.203121,0.04297 -0.347759,0.152289 -0.433696,0.32807 -0.285156,0.699215 -0.533179,1.429682 -0.744117,2.191397 -0.13627,0.496985 -0.222143,0.933952 -0.265202,1.319445 -0.213702,0.360856 -0.410025,0.661865 -0.572651,0.84858 -0.152343,0.167969 -0.287134,0.251981 -0.404321,0.251981 -0.07031,0 -0.105454,-0.06249 -0.105454,-0.187493 0,-0.06641 0.0098,-0.152312 0.02938,-0.257781 0.05469,-0.269531 0.148397,-0.589914 0.281209,-0.961008 0.136719,-0.37109 0.283223,-0.72264 0.439473,-1.054668 0.160156,-0.332031 0.298851,-0.578044 0.416038,-0.7382 -0.144531,-0.09766 -0.302749,-0.164108 -0.474624,-0.199265 -0.167965,-0.03906 -0.306663,-0.05869 -0.416038,-0.05869 -0.101562,0 -0.201212,0.0098 -0.298868,0.02934 -0.203125,0.04297 -0.349632,0.152291 -0.439472,0.328069 -0.140625,0.324219 -0.273381,0.689535 -0.398381,1.095785 -0.125,0.406246 -0.199187,0.730421 -0.222624,0.972608 -0.02734,0.242187 -0.04109,0.410212 -0.04109,0.503962 0,0.261718 0.04295,0.492239 0.128887,0.691454 0.113282,0.261719 0.33601,0.410118 0.668038,0.445275 h 0.02343 c 0.230465,0 0.470682,-0.107426 0.720682,-0.32227 0.244255,-0.206678 0.457016,-0.467121 0.639818,-0.778633 0.0081,0.220448 0.03557,0.422558 0.09258,0.596941 0.101563,0.300781 0.314444,0.468805 0.638663,0.503962 h 0.02343 c 0.230469,0 0.47272,-0.107426 0.726623,-0.32227 0.253906,-0.21484 0.472563,-0.486334 0.656156,-0.814459 0.1875,-0.328125 0.294958,-0.652297 0.322302,-0.972609 0,-0.04297 -0.0097,-0.06449 -0.02921,-0.06449 -0.02344,0 -0.05671,0.04872 -0.09968,0.146378 -0.296871,0.535152 -0.550837,0.923888 -0.761774,1.166072 -0.152344,0.167969 -0.287134,0.251981 -0.404322,0.251981 -0.07422,0 -0.111229,-0.07231 -0.111229,-0.216836 0,-0.121094 0.0253,-0.287054 0.07608,-0.497991 0.105469,-0.433593 0.261817,-0.937496 0.468848,-1.511715 0.207031,-0.578121 0.412104,-1.103549 0.615229,-1.576202 0.203125,-0.476562 0.349629,-0.779215 0.439472,-0.908121 -0.140625,-0.09375 -0.296976,-0.160202 -0.468847,-0.199264 -0.171875,-0.03906 -0.316345,-0.05869 -0.433532,-0.05869 z m -1.649631,0.151155 c 0.0243,0.01386 0.04886,0.03007 0.07344,0.04896 0.0097,0.0074 0.01703,0.01618 0.0264,0.02371 0.02106,-0.0079 0.04308,-0.01549 0.06568,-0.02201 -0.04928,-0.01844 -0.104064,-0.03539 -0.165524,-0.05067 z m -23.97923,1.27867 c -0.335937,0 -0.630983,0.09761 -0.884886,0.292926 -0.253906,0.191406 -0.460849,0.437419 -0.621005,0.7382 -0.160156,0.300781 -0.261675,0.578128 -0.304644,0.832031 -0.04297,0.253906 -0.06453,0.461013 -0.06453,0.621166 0,0.515625 0.132755,0.916064 0.39838,1.201217 0.179687,0.195313 0.425841,0.292926 0.738341,0.292926 0.218746,0 0.429765,-0.09572 0.632886,-0.287125 -0.207028,0.574215 -0.416011,0.970695 -0.626945,1.189445 -0.210938,0.21875 -0.400392,0.32807 -0.568361,0.32807 -0.148437,0 -0.306655,-0.06043 -0.474624,-0.181522 0.04687,0.234375 0.156207,0.402229 0.328078,0.503791 0.171875,0.101563 0.328058,0.160267 0.468683,0.175892 0.144531,0.01953 0.25012,0.02917 0.316526,0.02917 0.04297,0 0.07607,-0.0019 0.09951,-0.0058 0.421871,-0.07031 0.785165,-0.339913 1.089852,-0.808659 0.308593,-0.46875 0.570365,-1.021377 0.785209,-1.658092 0.218746,-0.640625 0.406169,-1.248168 0.562419,-1.822383 0.121094,-0.449218 0.232457,-0.816258 0.334019,-1.101414 -0.128906,-0.117188 -0.265569,-0.187599 -0.410097,-0.211036 -0.140625,-0.02344 -0.250118,-0.03514 -0.328243,-0.03514 -0.121094,0 -0.238234,0.01756 -0.351512,0.05272 -0.1875,0.05469 -0.316351,0.158154 -0.386664,0.310498 -0.152343,-0.304688 -0.396462,-0.456876 -0.732399,-0.456876 z m 4.054601,0 c -0.335937,0 -0.630818,0.09761 -0.884721,0.292926 -0.253906,0.191406 -0.461014,0.437419 -0.62117,0.7382 -0.160156,0.300781 -0.261675,0.578128 -0.304644,0.832031 -0.04297,0.253906 -0.06436,0.461013 -0.06436,0.621166 0,0.515625 0.132755,0.916064 0.39838,1.201217 0.179688,0.195313 0.425841,0.292926 0.738341,0.292926 0.218746,0 0.4296,-0.09572 0.632721,-0.287125 -0.207028,0.574215 -0.416011,0.970695 -0.626945,1.189445 -0.210938,0.21875 -0.400392,0.32807 -0.568361,0.32807 -0.148437,0 -0.306655,-0.06043 -0.474624,-0.181522 0.04687,0.234375 0.156207,0.402229 0.328078,0.503791 0.171875,0.101563 0.328223,0.160267 0.468848,0.175892 0.144531,0.01953 0.249955,0.02917 0.316361,0.02917 0.04297,0 0.07624,-0.0019 0.09968,-0.0058 0.421871,-0.07031 0.785165,-0.339913 1.089852,-0.808659 0.308594,-0.46875 0.5702,-1.021377 0.785044,-1.658092 0.21875,-0.640625 0.406334,-1.248168 0.562584,-1.822383 0.121094,-0.449218 0.232457,-0.816258 0.334019,-1.101414 -0.128906,-0.117188 -0.265734,-0.187599 -0.410262,-0.211036 -0.140625,-0.02344 -0.249953,-0.03514 -0.328078,-0.03514 -0.121094,0 -0.238231,0.01756 -0.351512,0.05272 -0.1875,0.05469 -0.316516,0.158154 -0.386829,0.310498 -0.152343,-0.304688 -0.396462,-0.456876 -0.732399,-0.456876 z m 12.322231,0 c -0.332031,0 -0.624874,0.09761 -0.87878,0.292926 -0.253906,0.191406 -0.461014,0.437419 -0.62117,0.7382 -0.160156,0.300781 -0.261675,0.578128 -0.304644,0.832031 -0.04297,0.25 -0.06453,0.451254 -0.06453,0.603594 0,0.53125 0.132924,0.937543 0.398545,1.218789 0.179688,0.195313 0.427711,0.292926 0.744117,0.292926 0.179687,0 0.363202,-0.06456 0.550702,-0.193464 0.1875,-0.128906 0.357431,-0.312426 0.509775,-0.550707 0.05078,0.55859 0.312553,0.86331 0.785209,0.914092 h 0.02343 c 0.230468,0 0.472717,-0.107426 0.726623,-0.32227 0.143527,-0.121445 0.274516,-0.263064 0.395575,-0.420707 0.04284,0.220454 0.159211,0.400728 0.354318,0.537912 0.175778,0.125 0.41022,0.187493 0.703189,0.187493 0.550777,0 0.974513,-0.121198 1.271384,-0.363385 0.296875,-0.246094 0.445414,-0.550643 0.445414,-0.913921 v -0.04112 C 70.041038,40.795587 69.937487,40.555422 69.753893,40.379644 69.5703,40.199956 69.378975,40.053451 69.179757,39.94017 69.043038,39.86204 68.93558,39.789739 68.857455,39.723333 68.783235,39.656923 68.74606,39.586686 68.74606,39.512468 l 0.0059,-0.04112 c 0.05859,-0.167965 0.167922,-0.25198 0.328078,-0.25198 0.183594,0 0.367112,0.07041 0.550702,0.211036 0.160156,0.125 0.244187,0.263587 0.252,0.41593 0.144531,-0.03125 0.251989,-0.132822 0.322302,-0.304697 0.07031,-0.171875 0.105453,-0.326131 0.105453,-0.462846 0,-0.08594 -0.0098,-0.171844 -0.02937,-0.257782 -0.05859,-0.230468 -0.230395,-0.384721 -0.515551,-0.462846 -0.160156,-0.03125 -0.312437,-0.04692 -0.456965,-0.04692 -0.25,0 -0.482405,0.04493 -0.697249,0.134776 -0.33984,0.136719 -0.589901,0.324198 -0.750057,0.562479 -0.15625,0.234375 -0.234341,0.464892 -0.234341,0.691455 0,0.06641 0.0058,0.134752 0.01749,0.205065 0.02453,0.13493 0.08446,0.263106 0.17031,0.386245 -0.0064,0.0074 -0.01048,0.0061 -0.01799,0.01808 -0.04297,0.08984 -0.150266,0.27922 -0.322137,0.568279 -0.371094,0.632812 -0.670041,0.949236 -0.896604,0.949236 -0.07031,0 -0.105453,-0.06249 -0.105453,-0.187493 0,-0.06641 0.0098,-0.152312 0.02938,-0.257781 0.05469,-0.269531 0.150267,-0.589914 0.286986,-0.961008 0.136715,-0.37109 0.283222,-0.72264 0.439472,-1.054668 0.15625,-0.332031 0.293075,-0.578044 0.410263,-0.7382 -0.144532,-0.09766 -0.30088,-0.164108 -0.468848,-0.199265 -0.167969,-0.03906 -0.306664,-0.05869 -0.416039,-0.05869 -0.101562,0 -0.201049,0.0098 -0.298702,0.02934 -0.203125,0.04297 -0.34776,0.152291 -0.433697,0.328069 l -0.117171,0.263753 c -0.07422,-0.46875 -0.367227,-0.703056 -0.878945,-0.703056 z M 49.011718,39.17263 c 0.08594,0 0.132792,0.04097 0.140605,0.123005 0.01172,0.08203 0.01766,0.146419 0.01766,0.193294 0,0.101559 -0.0098,0.216906 -0.02938,0.345812 l -0.105454,0.462847 c -0.109375,0.382809 -0.24213,0.734359 -0.39838,1.054668 -0.152344,0.316406 -0.285264,0.474618 -0.398546,0.474618 -0.148434,-0.0078 -0.222624,-0.140546 -0.222624,-0.398358 v -0.02934 c 0,-0.25 0.04889,-0.543013 0.146546,-0.878947 0.09766,-0.339844 0.222603,-0.642496 0.374946,-0.908121 0.15625,-0.265625 0.314468,-0.41213 0.474624,-0.439474 z m 4.054766,0 c 0.08594,0 0.132792,0.04097 0.140605,0.123005 0.01172,0.08203 0.01749,0.146419 0.01749,0.193294 0,0.101559 -0.0097,0.216906 -0.02921,0.345812 l -0.105454,0.462847 c -0.109375,0.382809 -0.242295,0.734359 -0.398545,1.054668 -0.152344,0.316406 -0.285102,0.474618 -0.39838,0.474618 -0.148438,-0.0078 -0.222625,-0.140546 -0.222625,-0.398358 v -0.02934 c 0,-0.25 0.04872,-0.543013 0.146381,-0.878947 0.09766,-0.339844 0.222768,-0.642496 0.375111,-0.908121 0.15625,-0.265625 0.314468,-0.41213 0.474624,-0.439474 z m 4.048825,0 c 0.140625,0.0078 0.210907,0.124881 0.210907,0.351443 0,0.269531 -0.0567,0.591808 -0.16998,0.966808 -0.109371,0.351562 -0.238226,0.660238 -0.386663,0.925863 -0.148437,0.261719 -0.28917,0.398411 -0.421979,0.41013 -0.121094,0 -0.189342,-0.05853 -0.204967,-0.175721 -0.01172,-0.117187 -0.01766,-0.207053 -0.01766,-0.269553 0,-0.140625 0.01765,-0.298837 0.05281,-0.474618 0.05078,-0.257812 0.124968,-0.517597 0.222624,-0.779315 0.101562,-0.261719 0.214795,-0.480529 0.339795,-0.656311 0.125,-0.179684 0.250111,-0.279194 0.375111,-0.298726 z m 8.273406,0 c 0.140625,0.0078 0.210907,0.124881 0.210907,0.351443 0,0.269531 -0.0567,0.591808 -0.16998,0.966808 -0.109371,0.351562 -0.24026,0.660238 -0.392604,0.925863 -0.148437,0.261719 -0.289002,0.398411 -0.421814,0.41013 -0.121094,0 -0.187472,-0.05664 -0.199191,-0.169921 -0.01172,-0.113278 -0.01766,-0.197293 -0.01766,-0.25198 0,-0.144532 0.01765,-0.310491 0.05281,-0.497991 0.05078,-0.257812 0.124968,-0.517597 0.222624,-0.779315 0.101562,-0.261719 0.212925,-0.480529 0.334019,-0.656311 0.125,-0.179684 0.251981,-0.279194 0.380887,-0.298726 z m 2.479068,1.19064 c 0.101106,0.124814 0.231349,0.243988 0.397885,0.356219 0.359375,0.238281 0.558508,0.410094 0.597571,0.515563 0.04297,0.101562 0.06453,0.173868 0.06453,0.216836 0,0.08984 -0.04295,0.160085 -0.128888,0.210866 -0.113278,0.06641 -0.25401,0.09963 -0.421979,0.09963 -0.207031,0 -0.382737,-0.04872 -0.527268,-0.146377 -0.125,-0.08984 -0.187473,-0.203123 -0.187473,-0.339842 0,-0.05859 0.01171,-0.130899 0.03515,-0.216836 0.012,-0.04081 0.01336,-0.07098 0.01799,-0.10441 0.08008,-0.198648 0.132106,-0.395911 0.152487,-0.591651 z"
             inkscape:original-d="m 42.56634,36.541759 c -0.289062,0 -0.644547,0.08005 -1.066418,0.240209 -0.394531,0.160156 -0.798738,0.419941 -1.2128,0.779316 -0.410153,0.359371 -0.716747,0.720731 -0.919872,1.084012 -0.203125,0.359375 -0.304809,0.669775 -0.304809,0.931493 0,0.125 0.01765,0.246198 0.05281,0.363385 0.113282,0.371093 0.497968,0.642588 1.154214,0.814459 -0.0078,-0.0625 -0.01172,-0.127057 -0.01172,-0.193464 0,-0.332028 0.101684,-0.734361 0.304809,-1.207017 0.246093,-0.570309 0.527223,-1.081966 0.843629,-1.535087 0.316406,-0.453125 0.556785,-0.689496 0.720847,-0.709027 0.125,0.01172 0.193248,0.08213 0.204966,0.211036 0.01172,0.125 0.01766,0.212801 0.01766,0.263582 0,0.390625 -0.09778,0.960983 -0.293092,1.710979 l -0.09951,0.357414 c -0.152343,0.46484 -0.228565,0.839801 -0.228565,1.124957 0,0.214844 0.05076,0.410241 0.152322,0.586022 0.132812,0.242187 0.420046,0.419854 0.861452,0.533135 0.06641,0.01172 0.132784,0.01757 0.19919,0.01757 0.175781,0 0.349617,-0.04493 0.521492,-0.134777 0.238281,-0.121093 0.455068,-0.273452 0.65038,-0.457046 0.136719,-0.132809 0.251986,-0.24988 0.345736,-0.351442 l -0.01766,0.07029 c -0.246094,0.757812 -0.501926,1.443344 -0.767551,2.056621 -0.21484,0.347656 -0.464901,0.521534 -0.750057,0.521534 -0.300781,0 -0.58785,-0.08212 -0.861287,-0.24618 0.113281,0.1875 0.291022,0.339858 0.533209,0.457046 0.246094,0.121093 0.486311,0.181692 0.720682,0.181692 0.15625,0 0.322277,-0.01962 0.498058,-0.05869 0.363281,-0.07422 0.685491,-0.341754 0.966741,-0.802688 0.390625,-0.636718 0.777343,-1.546914 1.160155,-2.730504 0.207031,-0.632808 0.429757,-1.224518 0.668038,-1.775296 0.04297,-0.09766 0.111381,-0.267575 0.205131,-0.509762 0.277344,-0.675781 0.443371,-1.058657 0.498058,-1.148501 -0.0039,0 -0.0059,-0.0019 -0.0059,-0.0058 l 0.0059,-0.01177 c -0.140625,-0.109375 -0.296973,-0.185639 -0.468848,-0.228608 -0.167968,-0.04687 -0.308533,-0.07029 -0.421814,-0.07029 -0.09766,0 -0.193401,0.01172 -0.287151,0.03514 -0.207031,0.05078 -0.353535,0.17577 -0.439473,0.374985 -0.09766,0.257813 -0.238221,0.66617 -0.421814,1.22476 -0.214844,0.59375 -0.461,1.144483 -0.73834,1.652292 -0.402344,0.734371 -0.775313,1.101585 -1.119063,1.101585 -0.125,0 -0.187638,-0.09383 -0.187638,-0.281325 0,-0.203125 0.0606,-0.56242 0.181697,-1.078041 0.101562,-0.429687 0.171845,-0.796898 0.210907,-1.101585 0.04297,-0.304687 0.06453,-0.527286 0.06453,-0.667911 0,-0.257812 -0.03327,-0.490395 -0.09968,-0.697426 -0.117188,-0.324218 -0.285084,-0.519445 -0.503834,-0.585851 -0.214844,-0.07031 -0.38681,-0.105433 -0.515716,-0.105433 z m 16.330129,0.316298 c -0.09375,0 -0.18746,0.0098 -0.28121,0.02934 -0.203125,0.04297 -0.345727,0.152289 -0.427755,0.32807 -0.148438,0.332031 -0.345701,0.873122 -0.591795,1.623118 -0.109375,-0.367184 -0.386765,-0.550707 -0.832077,-0.550707 -0.335937,0 -0.630815,0.09761 -0.884721,0.292926 -0.253906,0.191406 -0.461014,0.437419 -0.62117,0.7382 -0.160156,0.300781 -0.261675,0.578128 -0.304644,0.832031 -0.04297,0.253906 -0.06436,0.461013 -0.06436,0.621166 0,0.515625 0.132759,0.916064 0.39838,1.201217 0.179688,0.195313 0.425841,0.292926 0.738341,0.292926 0.1875,0 0.380859,-0.07041 0.580077,-0.211036 0.203125,-0.144531 0.384773,-0.34957 0.544926,-0.615195 0.03516,0.613277 0.27724,0.94537 0.726459,0.996152 h 0.02343 c 0.230468,0 0.472717,-0.107426 0.726623,-0.32227 0.249853,-0.211414 0.46515,-0.478339 0.646914,-0.799446 0.01916,0.340378 0.09962,0.636214 0.249524,0.881506 0.05859,0.08984 0.142625,0.15819 0.252,0.205065 0.113281,0.04297 0.205121,0.06449 0.275434,0.06449 0.08984,0 0.181518,-0.01962 0.275268,-0.05869 0.08594,-0.5 0.236346,-0.964826 0.45119,-1.39451 0.21875,-0.433594 0.437571,-0.781182 0.656321,-1.042897 0.222656,-0.265625 0.382743,-0.398529 0.4804,-0.398529 0.113281,0.01172 0.16998,0.09969 0.16998,0.263752 0,0.222656 -0.115271,0.421842 -0.345736,0.597623 0.160153,0.140625 0.312434,0.210866 0.456965,0.210866 0.05859,0 0.117328,-0.0136 0.175921,-0.04095 0.1875,-0.08594 0.343683,-0.250006 0.468683,-0.49219 0.125,-0.246094 0.195282,-0.456989 0.210907,-0.632767 0.01953,-0.175782 0.02938,-0.296979 0.02938,-0.363385 0,-0.191406 -0.03327,-0.357366 -0.09968,-0.497991 -0.08203,-0.167968 -0.222596,-0.251981 -0.421815,-0.251981 h -0.06453 c -0.261718,0.05078 -0.511614,0.189542 -0.749892,0.416101 -0.234375,0.226563 -0.445387,0.480323 -0.632887,0.761573 -0.183594,0.28125 -0.330098,0.529327 -0.439473,0.744171 l -0.164039,0.322269 c 0.234375,-0.832027 0.537062,-1.464878 0.908156,-1.898472 -0.144531,-0.09766 -0.304619,-0.166002 -0.4804,-0.205065 -0.175781,-0.03906 -0.32432,-0.05852 -0.445414,-0.05852 -0.09375,0 -0.185428,0.0077 -0.275268,0.02337 -0.207031,0.03906 -0.351666,0.148553 -0.433697,0.328241 -0.117187,0.265621 -0.23042,0.611318 -0.339795,1.037096 -0.09649,0.38598 -0.145133,0.679831 -0.156613,0.90232 -0.04888,0.08317 -0.06935,0.129171 -0.130538,0.228438 -0.347653,0.574215 -0.628785,0.861375 -0.843629,0.861375 -0.07422,0 -0.111394,-0.07231 -0.111394,-0.216836 0,-0.121094 0.02546,-0.287054 0.07624,-0.497991 0.105469,-0.433593 0.261652,-0.937496 0.468683,-1.511715 0.207031,-0.578121 0.412107,-1.103549 0.615228,-1.576202 0.203125,-0.476562 0.351499,-0.779215 0.445249,-0.908121 -0.144531,-0.09375 -0.302749,-0.160202 -0.474624,-0.199264 -0.171875,-0.03906 -0.316344,-0.05869 -0.433531,-0.05869 z m 15.380881,0 c -0.09375,0 -0.18746,0.0098 -0.28121,0.02934 -0.203121,0.04297 -0.347759,0.152289 -0.433696,0.32807 -0.285156,0.699215 -0.533179,1.429682 -0.744117,2.191397 -0.13627,0.496985 -0.222143,0.933952 -0.265202,1.319445 -0.213702,0.360856 -0.410025,0.661865 -0.572651,0.84858 -0.152343,0.167969 -0.287134,0.251981 -0.404321,0.251981 -0.07031,0 -0.105454,-0.06249 -0.105454,-0.187493 0,-0.06641 0.0098,-0.152312 0.02938,-0.257781 0.05469,-0.269531 0.148397,-0.589914 0.281209,-0.961008 0.136719,-0.37109 0.283223,-0.72264 0.439473,-1.054668 0.160156,-0.332031 0.298851,-0.578044 0.416038,-0.7382 -0.144531,-0.09766 -0.302749,-0.164108 -0.474624,-0.199265 -0.167965,-0.03906 -0.306663,-0.05869 -0.416038,-0.05869 -0.101562,0 -0.201212,0.0098 -0.298868,0.02934 -0.203125,0.04297 -0.349632,0.152291 -0.439472,0.328069 -0.140625,0.324219 -0.273381,0.689535 -0.398381,1.095785 -0.125,0.406246 -0.199187,0.730421 -0.222624,0.972608 -0.02734,0.242187 -0.04109,0.410212 -0.04109,0.503962 0,0.261718 0.04295,0.492239 0.128887,0.691454 0.113282,0.261719 0.33601,0.410118 0.668038,0.445275 h 0.02343 c 0.230465,0 0.470682,-0.107426 0.720682,-0.32227 0.244255,-0.206678 0.457016,-0.467121 0.639818,-0.778633 0.0081,0.220448 0.03557,0.422558 0.09258,0.596941 0.101563,0.300781 0.314444,0.468805 0.638663,0.503962 h 0.02343 c 0.230469,0 0.47272,-0.107426 0.726623,-0.32227 0.253906,-0.21484 0.472563,-0.486334 0.656156,-0.814459 0.1875,-0.328125 0.294958,-0.652297 0.322302,-0.972609 0,-0.04297 -0.0097,-0.06449 -0.02921,-0.06449 -0.02344,0 -0.05671,0.04872 -0.09968,0.146378 -0.296871,0.535152 -0.550837,0.923888 -0.761774,1.166072 -0.152344,0.167969 -0.287134,0.251981 -0.404322,0.251981 -0.07422,0 -0.111229,-0.07231 -0.111229,-0.216836 0,-0.121094 0.0253,-0.287054 0.07608,-0.497991 0.105469,-0.433593 0.261817,-0.937496 0.468848,-1.511715 0.207031,-0.578121 0.412104,-1.103549 0.615229,-1.576202 0.203125,-0.476562 0.349629,-0.779215 0.439472,-0.908121 -0.140625,-0.09375 -0.296976,-0.160202 -0.468847,-0.199264 -0.171875,-0.03906 -0.316345,-0.05869 -0.433532,-0.05869 z m -1.649631,0.151155 c 0.0243,0.01386 0.04886,0.03007 0.07344,0.04896 0.0097,0.0074 0.01703,0.01618 0.0264,0.02371 0.02106,-0.0079 0.04308,-0.01549 0.06568,-0.02201 -0.04928,-0.01844 -0.104064,-0.03539 -0.165524,-0.05067 z m -23.97923,1.27867 c -0.335937,0 -0.630983,0.09761 -0.884886,0.292926 -0.253906,0.191406 -0.460849,0.437419 -0.621005,0.7382 -0.160156,0.300781 -0.261675,0.578128 -0.304644,0.832031 -0.04297,0.253906 -0.06453,0.461013 -0.06453,0.621166 0,0.515625 0.132755,0.916064 0.39838,1.201217 0.179687,0.195313 0.425841,0.292926 0.738341,0.292926 0.218746,0 0.429765,-0.09572 0.632886,-0.287125 -0.207028,0.574215 -0.416011,0.970695 -0.626945,1.189445 -0.210938,0.21875 -0.400392,0.32807 -0.568361,0.32807 -0.148437,0 -0.306655,-0.06043 -0.474624,-0.181522 0.04687,0.234375 0.156207,0.402229 0.328078,0.503791 0.171875,0.101563 0.328058,0.160267 0.468683,0.175892 0.144531,0.01953 0.25012,0.02917 0.316526,0.02917 0.04297,0 0.07607,-0.0019 0.09951,-0.0058 0.421871,-0.07031 0.785165,-0.339913 1.089852,-0.808659 0.308593,-0.46875 0.570365,-1.021377 0.785209,-1.658092 0.218746,-0.640625 0.406169,-1.248168 0.562419,-1.822383 0.121094,-0.449218 0.232457,-0.816258 0.334019,-1.101414 -0.128906,-0.117188 -0.265569,-0.187599 -0.410097,-0.211036 -0.140625,-0.02344 -0.250118,-0.03514 -0.328243,-0.03514 -0.121094,0 -0.238234,0.01756 -0.351512,0.05272 -0.1875,0.05469 -0.316351,0.158154 -0.386664,0.310498 -0.152343,-0.304688 -0.396462,-0.456876 -0.732399,-0.456876 z m 4.054601,0 c -0.335937,0 -0.630818,0.09761 -0.884721,0.292926 -0.253906,0.191406 -0.461014,0.437419 -0.62117,0.7382 -0.160156,0.300781 -0.261675,0.578128 -0.304644,0.832031 -0.04297,0.253906 -0.06436,0.461013 -0.06436,0.621166 0,0.515625 0.132755,0.916064 0.39838,1.201217 0.179688,0.195313 0.425841,0.292926 0.738341,0.292926 0.218746,0 0.4296,-0.09572 0.632721,-0.287125 -0.207028,0.574215 -0.416011,0.970695 -0.626945,1.189445 -0.210938,0.21875 -0.400392,0.32807 -0.568361,0.32807 -0.148437,0 -0.306655,-0.06043 -0.474624,-0.181522 0.04687,0.234375 0.156207,0.402229 0.328078,0.503791 0.171875,0.101563 0.328223,0.160267 0.468848,0.175892 0.144531,0.01953 0.249955,0.02917 0.316361,0.02917 0.04297,0 0.07624,-0.0019 0.09968,-0.0058 0.421871,-0.07031 0.785165,-0.339913 1.089852,-0.808659 0.308594,-0.46875 0.5702,-1.021377 0.785044,-1.658092 0.21875,-0.640625 0.406334,-1.248168 0.562584,-1.822383 0.121094,-0.449218 0.232457,-0.816258 0.334019,-1.101414 -0.128906,-0.117188 -0.265734,-0.187599 -0.410262,-0.211036 -0.140625,-0.02344 -0.249953,-0.03514 -0.328078,-0.03514 -0.121094,0 -0.238231,0.01756 -0.351512,0.05272 -0.1875,0.05469 -0.316516,0.158154 -0.386829,0.310498 -0.152343,-0.304688 -0.396462,-0.456876 -0.732399,-0.456876 z m 12.322231,0 c -0.332031,0 -0.624874,0.09761 -0.87878,0.292926 -0.253906,0.191406 -0.461014,0.437419 -0.62117,0.7382 -0.160156,0.300781 -0.261675,0.578128 -0.304644,0.832031 -0.04297,0.25 -0.06453,0.451254 -0.06453,0.603594 0,0.53125 0.132924,0.937543 0.398545,1.218789 0.179688,0.195313 0.427711,0.292926 0.744117,0.292926 0.179687,0 0.363202,-0.06456 0.550702,-0.193464 0.1875,-0.128906 0.357431,-0.312426 0.509775,-0.550707 0.05078,0.55859 0.312553,0.86331 0.785209,0.914092 h 0.02343 c 0.230468,0 0.472717,-0.107426 0.726623,-0.32227 0.143527,-0.121445 0.274516,-0.263064 0.395575,-0.420707 0.04284,0.220454 0.159211,0.400728 0.354318,0.537912 0.175778,0.125 0.41022,0.187493 0.703189,0.187493 0.550777,0 0.974513,-0.121198 1.271384,-0.363385 0.296875,-0.246094 0.445414,-0.550643 0.445414,-0.913921 v -0.04112 C 70.041038,40.795587 69.937487,40.555422 69.753893,40.379644 69.5703,40.199956 69.378975,40.053451 69.179757,39.94017 69.043038,39.86204 68.93558,39.789739 68.857455,39.723333 68.783235,39.656923 68.74606,39.586686 68.74606,39.512468 l 0.0059,-0.04112 c 0.05859,-0.167965 0.167922,-0.25198 0.328078,-0.25198 0.183594,0 0.367112,0.07041 0.550702,0.211036 0.160156,0.125 0.244187,0.263587 0.252,0.41593 0.144531,-0.03125 0.251989,-0.132822 0.322302,-0.304697 0.07031,-0.171875 0.105453,-0.326131 0.105453,-0.462846 0,-0.08594 -0.0098,-0.171844 -0.02937,-0.257782 -0.05859,-0.230468 -0.230395,-0.384721 -0.515551,-0.462846 -0.160156,-0.03125 -0.312437,-0.04692 -0.456965,-0.04692 -0.25,0 -0.482405,0.04493 -0.697249,0.134776 -0.33984,0.136719 -0.589901,0.324198 -0.750057,0.562479 -0.15625,0.234375 -0.234341,0.464892 -0.234341,0.691455 0,0.06641 0.0058,0.134752 0.01749,0.205065 0.02453,0.13493 0.08446,0.263106 0.17031,0.386245 -0.0064,0.0074 -0.01048,0.0061 -0.01799,0.01808 -0.04297,0.08984 -0.150266,0.27922 -0.322137,0.568279 -0.371094,0.632812 -0.670041,0.949236 -0.896604,0.949236 -0.07031,0 -0.105453,-0.06249 -0.105453,-0.187493 0,-0.06641 0.0098,-0.152312 0.02938,-0.257781 0.05469,-0.269531 0.150267,-0.589914 0.286986,-0.961008 0.136715,-0.37109 0.283222,-0.72264 0.439472,-1.054668 0.15625,-0.332031 0.293075,-0.578044 0.410263,-0.7382 -0.144532,-0.09766 -0.30088,-0.164108 -0.468848,-0.199265 -0.167969,-0.03906 -0.306664,-0.05869 -0.416039,-0.05869 -0.101562,0 -0.201049,0.0098 -0.298702,0.02934 -0.203125,0.04297 -0.34776,0.152291 -0.433697,0.328069 l -0.117171,0.263753 c -0.07422,-0.46875 -0.367227,-0.703056 -0.878945,-0.703056 z M 49.011718,39.17263 c 0.08594,0 0.132792,0.04097 0.140605,0.123005 0.01172,0.08203 0.01766,0.146419 0.01766,0.193294 0,0.101559 -0.0098,0.216906 -0.02938,0.345812 l -0.105454,0.462847 c -0.109375,0.382809 -0.24213,0.734359 -0.39838,1.054668 -0.152344,0.316406 -0.285264,0.474618 -0.398546,0.474618 -0.148434,-0.0078 -0.222624,-0.140546 -0.222624,-0.398358 v -0.02934 c 0,-0.25 0.04889,-0.543013 0.146546,-0.878947 0.09766,-0.339844 0.222603,-0.642496 0.374946,-0.908121 0.15625,-0.265625 0.314468,-0.41213 0.474624,-0.439474 z m 4.054766,0 c 0.08594,0 0.132792,0.04097 0.140605,0.123005 0.01172,0.08203 0.01749,0.146419 0.01749,0.193294 0,0.101559 -0.0097,0.216906 -0.02921,0.345812 l -0.105454,0.462847 c -0.109375,0.382809 -0.242295,0.734359 -0.398545,1.054668 -0.152344,0.316406 -0.285102,0.474618 -0.39838,0.474618 -0.148438,-0.0078 -0.222625,-0.140546 -0.222625,-0.398358 v -0.02934 c 0,-0.25 0.04872,-0.543013 0.146381,-0.878947 0.09766,-0.339844 0.222768,-0.642496 0.375111,-0.908121 0.15625,-0.265625 0.314468,-0.41213 0.474624,-0.439474 z m 4.048825,0 c 0.140625,0.0078 0.210907,0.124881 0.210907,0.351443 0,0.269531 -0.0567,0.591808 -0.16998,0.966808 -0.109371,0.351562 -0.238226,0.660238 -0.386663,0.925863 -0.148437,0.261719 -0.28917,0.398411 -0.421979,0.41013 -0.121094,0 -0.189342,-0.05853 -0.204967,-0.175721 -0.01172,-0.117187 -0.01766,-0.207053 -0.01766,-0.269553 0,-0.140625 0.01765,-0.298837 0.05281,-0.474618 0.05078,-0.257812 0.124968,-0.517597 0.222624,-0.779315 0.101562,-0.261719 0.214795,-0.480529 0.339795,-0.656311 0.125,-0.179684 0.250111,-0.279194 0.375111,-0.298726 z m 8.273406,0 c 0.140625,0.0078 0.210907,0.124881 0.210907,0.351443 0,0.269531 -0.0567,0.591808 -0.16998,0.966808 -0.109371,0.351562 -0.24026,0.660238 -0.392604,0.925863 -0.148437,0.261719 -0.289002,0.398411 -0.421814,0.41013 -0.121094,0 -0.187472,-0.05664 -0.199191,-0.169921 -0.01172,-0.113278 -0.01766,-0.197293 -0.01766,-0.25198 0,-0.144532 0.01765,-0.310491 0.05281,-0.497991 0.05078,-0.257812 0.124968,-0.517597 0.222624,-0.779315 0.101562,-0.261719 0.212925,-0.480529 0.334019,-0.656311 0.125,-0.179684 0.251981,-0.279194 0.380887,-0.298726 z m 2.479068,1.19064 c 0.101106,0.124814 0.231349,0.243988 0.397885,0.356219 0.359375,0.238281 0.558508,0.410094 0.597571,0.515563 0.04297,0.101562 0.06453,0.173868 0.06453,0.216836 0,0.08984 -0.04295,0.160085 -0.128888,0.210866 -0.113278,0.06641 -0.25401,0.09963 -0.421979,0.09963 -0.207031,0 -0.382737,-0.04872 -0.527268,-0.146377 -0.125,-0.08984 -0.187473,-0.203123 -0.187473,-0.339842 0,-0.05859 0.01171,-0.130899 0.03515,-0.216836 0.012,-0.04081 0.01336,-0.07098 0.01799,-0.10441 0.08008,-0.198648 0.132106,-0.395911 0.152487,-0.591651 z" /><g
             id="g1"
             transform="matrix(0.37922469,0,0,0.37922469,-175.97886,26.697725)"><g
               id="objects"
               transform="matrix(-0.05224725,0,0,0.05224725,491.43702,-38.860407)"
               clip-path="url(#clipPath2)"
               style="fill:#ffffff">&#10;	<g
   id="g2"
   style="fill:#ffffff">&#10;		<path
   style="fill:#ffffff"
   d="m 135.866,174.895 c -14.793,6.357 -25.141,14.735 -30.451,19.678 -2.421,2.253 -6.165,2.255 -8.588,0.004 v 0 c -2.549,-2.367 -2.704,-6.348 -0.342,-8.902 16.686,-18.039 49.381,-52.643 129.512,-56.5 96.565,-4.647 118.192,67.096 204.192,50.096 0,0 -41.978,3.339 -122.456,-52.863 -63.7,-44.485 -137.194,-9.567 -138.534,-9.147 0.6,-0.91 39.59,-58.99 115.99,-58.99 85,0 122,109 220,96 0,0 -62,111 -170,111 -71.288,0 -111.748,-48.898 -147.552,-81.646 -14.023,-12.828 -34.31,-16.235 -51.771,-8.73 z"
   id="path1"
   inkscape:original-d="m 135.866,174.895 c -14.793,6.357 -25.141,14.735 -30.451,19.678 -2.421,2.253 -6.165,2.255 -8.588,0.004 v 0 c -2.549,-2.367 -2.704,-6.348 -0.342,-8.902 16.686,-18.039 49.381,-52.643 129.512,-56.5 96.565,-4.647 118.192,67.096 204.192,50.096 0,0 -41.978,3.339 -122.456,-52.863 -63.7,-44.485 -137.194,-9.567 -138.534,-9.147 0.6,-0.91 39.59,-58.99 115.99,-58.99 85,0 122,109 220,96 0,0 -62,111 -170,111 -71.288,0 -111.748,-48.898 -147.552,-81.646 -14.023,-12.828 -34.31,-16.235 -51.771,-8.73 z" />&#10;		<path
   style="fill:#ffffff"
   d="m 169.2,393.719 c 4.441,-6.611 9.699,-12.66 15.319,-18.324 2.82,-2.826 5.736,-5.564 8.783,-8.154 1.5,-1.324 3.07,-2.563 4.625,-3.824 1.587,-1.218 3.167,-2.449 4.794,-3.616 12.974,-9.381 27.478,-16.818 42.937,-21.451 7.723,-2.317 15.658,-3.954 23.678,-4.917 8.027,-0.96 16.09,-1.301 24.273,-0.853 8.147,0.609 16.213,2.232 23.994,4.707 7.809,2.428 15.227,5.893 22.353,9.756 7.126,3.88 13.949,8.253 20.499,12.92 6.566,4.648 12.953,9.505 19.232,14.423 6.293,4.902 12.5,9.865 18.763,14.695 6.272,4.809 12.618,9.467 19.115,13.835 6.516,4.331 13.229,8.28 20.144,11.743 l 5.233,2.48 c 1.771,0.756 3.561,1.458 5.339,2.192 1.763,0.778 3.602,1.327 5.413,1.953 1.816,0.613 3.62,1.267 5.483,1.705 7.337,2.203 14.931,3.273 22.521,3.837 l 5.713,0.269 5.726,-0.149 2.862,-0.084 2.856,-0.293 5.711,-0.577 9.335,-0.944 -4.533,8.014 c -1.204,2.129 -2.362,4.018 -3.593,5.971 -1.215,1.937 -2.461,3.843 -3.733,5.731 -2.527,3.787 -5.179,7.476 -7.889,11.122 -5.446,7.271 -11.22,14.292 -17.328,21.026 -12.232,13.433 -25.698,25.878 -40.7,36.37 -3.7,2.688 -7.593,5.11 -11.458,7.566 l -5.932,3.479 c -1.972,1.169 -4.044,2.17 -6.062,3.262 -8.156,4.205 -16.586,7.97 -25.351,10.838 l -3.267,1.129 -3.325,0.952 c -2.223,0.613 -4.425,1.305 -6.667,1.849 -4.507,0.994 -8.992,2.104 -13.576,2.722 l -3.421,0.547 c -0.571,0.085 -1.139,0.195 -1.712,0.259 l -1.724,0.169 -6.897,0.669 c -1.148,0.141 -2.304,0.149 -3.458,0.193 l -3.462,0.117 c -2.309,0.064 -4.616,0.205 -6.928,0.107 -9.241,-0.118 -18.504,-1.049 -27.601,-2.873 -9.087,-1.851 -18.023,-4.519 -26.574,-8.069 -8.56,-3.525 -16.782,-7.791 -24.604,-12.618 -7.803,-4.858 -15.23,-10.233 -22.33,-15.932 C 217.584,496.23 204.724,483.53 191.88,471.266 l -4.832,-4.564 -2.42,-2.259 c -0.413,-0.397 -0.794,-0.724 -1.168,-1.039 l -1.132,-0.973 c -3.065,-2.538 -6.483,-4.649 -10.132,-6.253 -7.294,-3.22 -15.509,-4.365 -23.43,-3.254 -3.98,0.55 -7.802,1.65 -11.558,3.263 -3.909,1.689 -7.718,3.621 -11.404,5.768 -3.673,2.168 -7.234,4.536 -10.616,7.128 -1.69,1.295 -3.341,2.64 -4.935,4.035 -0.401,0.347 -0.795,0.699 -1.184,1.056 -0.245,0.22 -1.133,1.053 -1.935,1.546 -1.653,1.06 -3.593,1.681 -5.546,1.745 -3.921,0.192 -7.86,-1.908 -9.858,-5.271 -2.072,-3.341 -2.171,-7.748 -0.199,-11.154 0.225,-0.435 0.521,-0.823 0.796,-1.224 l 0.463,-0.56 0.237,-0.275 0.154,-0.165 1.159,-1.231 2.324,-2.46 c 1.603,-1.621 3.138,-3.284 4.81,-4.857 6.536,-6.399 13.625,-12.335 21.199,-17.548 15.141,-10.509 32.244,-17.794 49.767,-22.716 17.587,-4.861 35.702,-7.061 53.745,-7.771 18.143,-0.551 36.529,1.317 53.917,6.719 8.695,2.648 17.114,6.07 25.256,9.948 8.15,3.873 16.007,8.228 23.806,12.581 7.799,4.357 15.555,8.711 23.51,12.623 7.949,3.917 16.163,7.283 24.697,9.622 8.523,2.352 17.335,3.699 26.214,3.984 8.882,0.288 17.803,-0.486 26.607,-1.98 -8.729,1.869 -17.643,3.034 -26.619,3.129 -1.121,0.005 -2.245,0.062 -3.367,0.025 l -3.365,-0.151 c -1.121,-0.064 -2.249,-0.07 -3.367,-0.182 l -3.355,-0.353 c -2.245,-0.191 -4.46,-0.594 -6.681,-0.971 -2.234,-0.319 -4.413,-0.894 -6.616,-1.372 -8.778,-2.072 -17.281,-5.21 -25.481,-8.895 -8.22,-3.658 -16.158,-7.846 -24.074,-11.962 -7.915,-4.118 -15.814,-8.195 -23.906,-11.751 -8.083,-3.57 -16.356,-6.623 -24.811,-8.961 -16.892,-4.822 -34.555,-6.196 -52.051,-5.268 l -13.175,1.114 c -1.1,0.071 -2.191,0.218 -3.279,0.382 l -3.267,0.459 -6.532,0.916 -1.632,0.233 -1.615,0.321 -3.23,0.634 -6.459,1.257 c -2.144,0.453 -4.248,1.062 -6.374,1.584 -2.114,0.563 -4.255,1.037 -6.345,1.672 -16.73,5.008 -32.811,12.195 -46.885,22.319 -7.051,5.031 -13.609,10.704 -19.73,16.897 -1.555,1.514 -3.026,3.156 -4.55,4.72 l -2.25,2.43 -1.124,1.218 -0.13,0.142 -0.031,0.046 c -0.022,0.03 -0.047,0.057 -0.074,0.083 -0.022,0.07 -0.09,0.113 -0.107,0.183 -0.283,0.477 -0.234,1.156 0.063,1.606 0.304,0.489 0.865,0.757 1.413,0.72 0.279,-0.009 0.536,-0.111 0.758,-0.255 -0.074,0.113 1.153,-1.056 1.954,-1.759 1.749,-1.563 3.547,-3.057 5.385,-4.496 3.677,-2.876 7.537,-5.5 11.528,-7.91 4.005,-2.387 8.15,-4.544 12.418,-6.439 4.424,-1.962 9.234,-3.414 14.094,-4.126 9.746,-1.468 19.894,-0.166 28.975,3.732 4.542,1.941 8.816,4.521 12.657,7.637 l 1.419,1.195 c 0.481,0.402 0.948,0.801 1.344,1.174 l 2.498,2.286 4.921,4.613 c 13.012,12.349 25.656,24.731 39.347,35.667 6.842,5.454 13.926,10.538 21.297,15.095 7.388,4.524 15.081,8.477 23.044,11.726 7.954,3.273 16.219,5.704 24.627,7.389 8.408,1.695 16.98,2.603 25.59,2.737 2.151,0.103 4.305,-0.03 6.458,-0.082 l 3.23,-0.097 c 1.076,-0.037 2.156,-0.036 3.226,-0.168 l 6.434,-0.604 1.609,-0.149 c 0.535,-0.057 1.065,-0.16 1.598,-0.238 l 3.193,-0.502 c 4.278,-0.554 8.469,-1.59 12.684,-2.496 2.097,-0.501 4.159,-1.148 6.241,-1.712 l 3.116,-0.877 3.065,-1.051 c 8.223,-2.654 16.165,-6.174 23.881,-10.118 1.91,-1.028 3.87,-1.959 5.74,-3.063 l 5.631,-3.277 c 3.674,-2.322 7.379,-4.603 10.911,-7.155 14.3,-9.947 27.414,-21.681 39.319,-34.54 5.953,-6.433 11.6,-13.162 16.929,-20.129 2.65,-3.493 5.247,-7.029 7.712,-10.645 1.24,-1.802 2.455,-3.621 3.631,-5.454 1.169,-1.811 2.359,-3.721 3.37,-5.467 l 4.802,7.07 -6.17,0.567 -3.084,0.28 -3.104,0.066 c -2.069,0.032 -4.138,0.086 -6.207,0.094 l -6.207,-0.35 c -8.247,-0.686 -16.487,-2.049 -24.374,-4.538 -2.006,-0.514 -3.936,-1.243 -5.879,-1.934 -1.937,-0.704 -3.904,-1.337 -5.774,-2.193 -1.888,-0.813 -3.789,-1.599 -5.662,-2.437 l -5.509,-2.722 c -7.254,-3.782 -14.206,-8.038 -20.87,-12.627 -13.293,-9.234 -25.595,-19.508 -37.865,-29.568 -6.135,-5.037 -12.311,-9.958 -18.628,-14.652 -6.302,-4.714 -12.81,-9.091 -19.573,-12.977 -6.762,-3.869 -13.764,-7.337 -21.112,-9.803 -7.33,-2.492 -14.898,-4.279 -22.615,-5.08 -7.697,-0.646 -15.591,-0.558 -23.389,0.149 -7.805,0.706 -15.559,2.07 -23.145,4.106 -15.187,4.039 -29.674,10.762 -42.796,19.578 -3.274,2.214 -6.48,4.537 -9.584,6.995 -3.124,2.434 -6.129,5.023 -9.047,7.708 -5.82,5.385 -11.311,11.179 -16.028,17.591 z"
   id="path2"
   inkscape:original-d="m 169.2,393.719 c 4.441,-6.611 9.699,-12.66 15.319,-18.324 2.82,-2.826 5.736,-5.564 8.783,-8.154 1.5,-1.324 3.07,-2.563 4.625,-3.824 1.587,-1.218 3.167,-2.449 4.794,-3.616 12.974,-9.381 27.478,-16.818 42.937,-21.451 7.723,-2.317 15.658,-3.954 23.678,-4.917 8.027,-0.96 16.09,-1.301 24.273,-0.853 8.147,0.609 16.213,2.232 23.994,4.707 7.809,2.428 15.227,5.893 22.353,9.756 7.126,3.88 13.949,8.253 20.499,12.92 6.566,4.648 12.953,9.505 19.232,14.423 6.293,4.902 12.5,9.865 18.763,14.695 6.272,4.809 12.618,9.467 19.115,13.835 6.516,4.331 13.229,8.28 20.144,11.743 l 5.233,2.48 c 1.771,0.756 3.561,1.458 5.339,2.192 1.763,0.778 3.602,1.327 5.413,1.953 1.816,0.613 3.62,1.267 5.483,1.705 7.337,2.203 14.931,3.273 22.521,3.837 l 5.713,0.269 5.726,-0.149 2.862,-0.084 2.856,-0.293 5.711,-0.577 9.335,-0.944 -4.533,8.014 c -1.204,2.129 -2.362,4.018 -3.593,5.971 -1.215,1.937 -2.461,3.843 -3.733,5.731 -2.527,3.787 -5.179,7.476 -7.889,11.122 -5.446,7.271 -11.22,14.292 -17.328,21.026 -12.232,13.433 -25.698,25.878 -40.7,36.37 -3.7,2.688 -7.593,5.11 -11.458,7.566 l -5.932,3.479 c -1.972,1.169 -4.044,2.17 -6.062,3.262 -8.156,4.205 -16.586,7.97 -25.351,10.838 l -3.267,1.129 -3.325,0.952 c -2.223,0.613 -4.425,1.305 -6.667,1.849 -4.507,0.994 -8.992,2.104 -13.576,2.722 l -3.421,0.547 c -0.571,0.085 -1.139,0.195 -1.712,0.259 l -1.724,0.169 -6.897,0.669 c -1.148,0.141 -2.304,0.149 -3.458,0.193 l -3.462,0.117 c -2.309,0.064 -4.616,0.205 -6.928,0.107 -9.241,-0.118 -18.504,-1.049 -27.601,-2.873 -9.087,-1.851 -18.023,-4.519 -26.574,-8.069 -8.56,-3.525 -16.782,-7.791 -24.604,-12.618 -7.803,-4.858 -15.23,-10.233 -22.33,-15.932 C 217.584,496.23 204.724,483.53 191.88,471.266 l -4.832,-4.564 -2.42,-2.259 c -0.413,-0.397 -0.794,-0.724 -1.168,-1.039 l -1.132,-0.973 c -3.065,-2.538 -6.483,-4.649 -10.132,-6.253 -7.294,-3.22 -15.509,-4.365 -23.43,-3.254 -3.98,0.55 -7.802,1.65 -11.558,3.263 -3.909,1.689 -7.718,3.621 -11.404,5.768 -3.673,2.168 -7.234,4.536 -10.616,7.128 -1.69,1.295 -3.341,2.64 -4.935,4.035 -0.401,0.347 -0.795,0.699 -1.184,1.056 -0.245,0.22 -1.133,1.053 -1.935,1.546 -1.653,1.06 -3.593,1.681 -5.546,1.745 -3.921,0.192 -7.86,-1.908 -9.858,-5.271 -2.072,-3.341 -2.171,-7.748 -0.199,-11.154 0.225,-0.435 0.521,-0.823 0.796,-1.224 l 0.463,-0.56 0.237,-0.275 0.154,-0.165 1.159,-1.231 2.324,-2.46 c 1.603,-1.621 3.138,-3.284 4.81,-4.857 6.536,-6.399 13.625,-12.335 21.199,-17.548 15.141,-10.509 32.244,-17.794 49.767,-22.716 17.587,-4.861 35.702,-7.061 53.745,-7.771 18.143,-0.551 36.529,1.317 53.917,6.719 8.695,2.648 17.114,6.07 25.256,9.948 8.15,3.873 16.007,8.228 23.806,12.581 7.799,4.357 15.555,8.711 23.51,12.623 7.949,3.917 16.163,7.283 24.697,9.622 8.523,2.352 17.335,3.699 26.214,3.984 8.882,0.288 17.803,-0.486 26.607,-1.98 -8.729,1.869 -17.643,3.034 -26.619,3.129 -1.121,0.005 -2.245,0.062 -3.367,0.025 l -3.365,-0.151 c -1.121,-0.064 -2.249,-0.07 -3.367,-0.182 l -3.355,-0.353 c -2.245,-0.191 -4.46,-0.594 -6.681,-0.971 -2.234,-0.319 -4.413,-0.894 -6.616,-1.372 -8.778,-2.072 -17.281,-5.21 -25.481,-8.895 -8.22,-3.658 -16.158,-7.846 -24.074,-11.962 -7.915,-4.118 -15.814,-8.195 -23.906,-11.751 -8.083,-3.57 -16.356,-6.623 -24.811,-8.961 -16.892,-4.822 -34.555,-6.196 -52.051,-5.268 l -13.175,1.114 c -1.1,0.071 -2.191,0.218 -3.279,0.382 l -3.267,0.459 -6.532,0.916 -1.632,0.233 -1.615,0.321 -3.23,0.634 -6.459,1.257 c -2.144,0.453 -4.248,1.062 -6.374,1.584 -2.114,0.563 -4.255,1.037 -6.345,1.672 -16.73,5.008 -32.811,12.195 -46.885,22.319 -7.051,5.031 -13.609,10.704 -19.73,16.897 -1.555,1.514 -3.026,3.156 -4.55,4.72 l -2.25,2.43 -1.124,1.218 -0.13,0.142 -0.031,0.046 c -0.022,0.03 -0.047,0.057 -0.074,0.083 -0.022,0.07 -0.09,0.113 -0.107,0.183 -0.283,0.477 -0.234,1.156 0.063,1.606 0.304,0.489 0.865,0.757 1.413,0.72 0.279,-0.009 0.536,-0.111 0.758,-0.255 -0.074,0.113 1.153,-1.056 1.954,-1.759 1.749,-1.563 3.547,-3.057 5.385,-4.496 3.677,-2.876 7.537,-5.5 11.528,-7.91 4.005,-2.387 8.15,-4.544 12.418,-6.439 4.424,-1.962 9.234,-3.414 14.094,-4.126 9.746,-1.468 19.894,-0.166 28.975,3.732 4.542,1.941 8.816,4.521 12.657,7.637 l 1.419,1.195 c 0.481,0.402 0.948,0.801 1.344,1.174 l 2.498,2.286 4.921,4.613 c 13.012,12.349 25.656,24.731 39.347,35.667 6.842,5.454 13.926,10.538 21.297,15.095 7.388,4.524 15.081,8.477 23.044,11.726 7.954,3.273 16.219,5.704 24.627,7.389 8.408,1.695 16.98,2.603 25.59,2.737 2.151,0.103 4.305,-0.03 6.458,-0.082 l 3.23,-0.097 c 1.076,-0.037 2.156,-0.036 3.226,-0.168 l 6.434,-0.604 1.609,-0.149 c 0.535,-0.057 1.065,-0.16 1.598,-0.238 l 3.193,-0.502 c 4.278,-0.554 8.469,-1.59 12.684,-2.496 2.097,-0.501 4.159,-1.148 6.241,-1.712 l 3.116,-0.877 3.065,-1.051 c 8.223,-2.654 16.165,-6.174 23.881,-10.118 1.91,-1.028 3.87,-1.959 5.74,-3.063 l 5.631,-3.277 c 3.674,-2.322 7.379,-4.603 10.911,-7.155 14.3,-9.947 27.414,-21.681 39.319,-34.54 5.953,-6.433 11.6,-13.162 16.929,-20.129 2.65,-3.493 5.247,-7.029 7.712,-10.645 1.24,-1.802 2.455,-3.621 3.631,-5.454 1.169,-1.811 2.359,-3.721 3.37,-5.467 l 4.802,7.07 -6.17,0.567 -3.084,0.28 -3.104,0.066 c -2.069,0.032 -4.138,0.086 -6.207,0.094 l -6.207,-0.35 c -8.247,-0.686 -16.487,-2.049 -24.374,-4.538 -2.006,-0.514 -3.936,-1.243 -5.879,-1.934 -1.937,-0.704 -3.904,-1.337 -5.774,-2.193 -1.888,-0.813 -3.789,-1.599 -5.662,-2.437 l -5.509,-2.722 c -7.254,-3.782 -14.206,-8.038 -20.87,-12.627 -13.293,-9.234 -25.595,-19.508 -37.865,-29.568 -6.135,-5.037 -12.311,-9.958 -18.628,-14.652 -6.302,-4.714 -12.81,-9.091 -19.573,-12.977 -6.762,-3.869 -13.764,-7.337 -21.112,-9.803 -7.33,-2.492 -14.898,-4.279 -22.615,-5.08 -7.697,-0.646 -15.591,-0.558 -23.389,0.149 -7.805,0.706 -15.559,2.07 -23.145,4.106 -15.187,4.039 -29.674,10.762 -42.796,19.578 -3.274,2.214 -6.48,4.537 -9.584,6.995 -3.124,2.434 -6.129,5.023 -9.047,7.708 -5.82,5.385 -11.311,11.179 -16.028,17.591 z" />&#10;	</g>&#10;</g></g></g><g
           id="g4"
           transform="matrix(-0.01826408,0,0,0.0189009,48.898633,-0.56822)"
           clip-path="url(#clipPath5)"
           style="fill:#ffffff"><g
             id="objects-4"
             style="fill:#ffffff">&#10;	<g
   id="g6"
   style="fill:#ffffff">&#10;		<path
   style="fill:#ffffff"
   d="m 284.691,112.428 c -38.4,4.96 -41.4,49.94 -73.57,58.52 -15.61,4.16 -30.97,2.62 -40.62,-4.94 -58.11,54.6 -66.09,101.4 -66.09,101.4 -19.66,-35.15 -53.94,-48.37 -53.94,-48.37 28.75,-1.06 48.59,12.85 48.59,12.85 38.71,-71.81 126.688,-117.32 137.025,-120.421 -9.304,0.148 -41.265,12.751 -75.055,38.961 -0.29,-1.39 -0.48,-2.86 -0.57,-4.38 -1.71,-26.84 24.45,-52.02 48.7,-58.48 40.87,-10.89 75.53,24.86 75.53,24.86 z"
   id="path1-6" />&#10;		<path
   style="fill:#ffffff"
   d="m 207.205,373.909 c -22.54,6.46 -54.435,27.888 -56.797,81.349 -4.428,4.749 -8.71,12.228 -12.601,20.082 v 0 c -3.939,-22.297 -16.55,-37.25 -31.72,-42.08 -25.67,-8.17 -48.34,15.55 -48.34,15.55 24.24,4.09 25.24,34.8 45.46,41.24 4.41,1.4 8.58,2.13 13.49,1.45 2.01,-0.28 3.96,-0.82 5.79,-1.57 0.68,-0.28 1.34,-0.59 1.98,-0.92 -7.12,-18.75 -26.84,-31.51 -27.51,-31.94 0.63,0.33 16.55,8.82 32.05,28.8 4.47,5.75 8.9,12.45 12.92,20.19 0,0 2.078,-22.451 29.338,-53.711 30.16,-34.57 63.58,-43.98 64.87,-44.33 -1.37,0.65 -37.51,17.88 -58.2,48.45 8.63,3.84 19.79,4.06 31.09,0.82 29.91,-8.58 32.69,-53.56 68.39,-58.52 0,0 -32.22,-35.75 -70.21,-24.86 z"
   id="path2-3" />&#10;		<g
   id="g5"
   style="fill:#ffffff">&#10;			<path
   style="fill:#ffffff"
   d="m 465.916,419.09 c 9.273,-6.877 19.085,-13.242 29.861,-18.214 -1.477,0.197 -2.936,0.51 -4.393,0.839 l -2.181,0.523 -2.154,0.615 c -2.87,0.841 -5.721,1.781 -8.517,2.869 -5.603,2.158 -11.027,4.793 -16.305,7.722 -10.475,5.985 -20.244,13.332 -28.965,21.797 -2.136,2.157 -4.227,4.363 -6.34,6.552 l -2.975,3.435 c -0.983,1.154 -2.003,2.274 -2.929,3.481 -1.899,2.372 -3.793,4.748 -5.529,7.259 -1.807,2.451 -3.477,5.018 -5.12,7.596 -3.194,5.226 -6.12,10.654 -8.496,16.388 -0.905,2.081 -1.692,4.229 -2.408,6.41 -1.006,-1.444 -2.032,-2.873 -3.097,-4.271 -3.537,-4.602 -7.4,-8.92 -11.526,-12.952 -4.157,-4 -8.584,-7.697 -13.295,-10.96 -2.34,-1.649 -4.786,-3.145 -7.262,-4.556 -1.23,-0.718 -2.502,-1.368 -3.784,-1.987 -1.279,-0.621 -2.569,-1.222 -3.903,-1.708 2.276,1.681 4.398,3.523 6.49,5.372 2.098,1.841 4.08,3.804 6.027,5.777 3.878,3.965 7.54,8.089 10.906,12.421 1.69,2.159 3.324,4.352 4.876,6.601 1.599,2.213 3.077,4.504 4.509,6.816 1.442,2.305 2.812,4.65 4.101,7.036 1.305,2.376 2.544,4.786 3.707,7.229 l 6.338,13.317 2.906,-15.127 c 0.063,-0.327 0.219,-1.083 0.357,-1.667 0.164,-0.635 0.306,-1.273 0.491,-1.919 0.354,-1.293 0.782,-2.59 1.218,-3.886 0.492,-1.289 0.922,-2.59 1.485,-3.865 0.519,-1.286 1.041,-2.571 1.643,-3.835 2.331,-5.073 5.051,-10.02 8.039,-14.826 3.023,-4.793 6.306,-9.443 9.782,-13.979 1.712,-2.285 3.589,-4.456 5.364,-6.703 1.879,-2.145 3.737,-4.315 5.641,-6.446 7.72,-8.429 16.251,-16.144 25.438,-23.154 z"
   id="path3" />&#10;			<path
   style="fill:#ffffff"
   d="m 371.409,486.769 c -3.388,-0.241 -6.565,-1.176 -9.699,-2.472 -6.044,-2.42 -10.092,-7.36 -13.636,-13.115 -3.567,-5.751 -6.686,-12.257 -11.531,-18.412 -2.413,-3.057 -5.39,-5.96 -8.91,-8.305 -0.633,-0.405 -1.288,-0.78 -1.952,-1.14 0.94,-0.675 1.891,-1.333 2.852,-1.97 3.48,-2.29 7.168,-4.196 10.947,-5.651 1.892,-0.724 3.815,-1.33 5.758,-1.752 1.936,-0.443 3.894,-0.792 5.853,-0.892 3.911,-0.231 7.862,0.1 11.656,1.289 7.626,2.236 14.608,7.285 20.004,13.944 5.454,6.663 9.333,14.792 12.262,23.448 -0.326,-9.123 -2.631,-18.435 -7.432,-26.759 -2.395,-4.152 -5.435,-8.026 -9.102,-11.349 -3.658,-3.328 -7.963,-6.072 -12.703,-7.955 -1.165,-0.527 -2.404,-0.848 -3.62,-1.248 -0.616,-0.171 -1.242,-0.312 -1.864,-0.467 -0.621,-0.164 -1.249,-0.296 -1.884,-0.394 -2.524,-0.506 -5.105,-0.675 -7.669,-0.658 -5.136,0.043 -10.197,1.03 -14.911,2.691 -4.749,1.605 -9.145,3.916 -13.264,6.541 -2.066,1.31 -4.028,2.76 -5.935,4.281 -0.949,0.768 -1.887,1.548 -2.805,2.369 -0.461,0.409 -0.916,0.824 -1.372,1.255 -0.474,0.449 -0.869,0.825 -1.429,1.406 l -7.253,7.523 10.279,1.596 c 2.87,0.446 5.541,1.377 8.011,2.825 2.469,1.462 4.771,3.416 6.898,5.802 4.341,4.698 7.968,10.788 12.588,16.608 2.309,2.917 4.922,5.782 8.068,8.185 3.117,2.385 6.885,4.221 10.675,4.973 3.628,0.801 7.541,1.138 11.252,0.515 3.701,-0.542 7.241,-1.954 10.133,-4.07 -3.4,1.17 -6.879,1.603 -10.265,1.358 z"
   id="path4" />&#10;			<path
   style="fill:#ffffff"
   d="m 542.777,392.055 c -0.435,-0.481 -0.761,-0.826 -1.134,-1.213 l -1.087,-1.107 c -0.726,-0.726 -1.46,-1.431 -2.201,-2.126 -1.485,-1.385 -3.003,-2.724 -4.555,-4.022 -3.12,-2.575 -6.39,-4.968 -9.795,-7.183 -6.799,-4.438 -14.258,-8.042 -22.238,-10.382 -7.964,-2.318 -16.532,-3.252 -24.924,-2.155 -1.048,0.13 -2.096,0.253 -3.128,0.48 -1.033,0.214 -2.077,0.375 -3.097,0.64 l -3.051,0.814 c -1.002,0.292 -1.958,0.647 -2.938,0.97 -3.906,1.302 -7.618,3.057 -11.251,4.924 -1.784,0.996 -3.54,2.043 -5.284,3.096 -1.671,1.175 -3.362,2.314 -4.999,3.523 -1.574,1.296 -3.173,2.555 -4.71,3.883 l -4.372,4.242 c -5.603,5.879 -10.134,12.679 -13.569,19.88 l -1.291,2.698 c -0.448,0.89 -0.731,1.853 -1.102,2.774 -0.681,1.869 -1.412,3.714 -2.003,5.599 l -1.546,5.716 -0.383,1.423 c -0.123,0.475 -0.187,0.965 -0.282,1.447 l -0.528,2.896 -0.498,2.893 -0.243,1.443 -0.13,1.461 -0.506,5.821 c -0.245,1.925 -0.126,3.883 -0.15,5.818 0.001,1.938 0.008,3.869 0.041,5.794 0.343,-1.908 0.66,-3.809 0.97,-5.704 0.328,-1.893 0.571,-3.79 1.061,-5.647 l 1.3,-5.573 0.325,-1.387 0.436,-1.359 0.86,-2.713 0.831,-2.71 c 0.146,-0.448 0.259,-0.907 0.431,-1.346 l 0.528,-1.313 2.099,-5.229 c 0.76,-1.711 1.678,-3.348 2.483,-5.025 0.432,-0.824 0.776,-1.692 1.278,-2.476 l 1.448,-2.377 c 3.823,-6.336 8.439,-12.119 13.823,-17.025 5.401,-4.88 11.458,-8.973 17.984,-12.054 3.281,-1.492 6.616,-2.866 10.056,-3.859 3.429,-1.126 6.786,-1.755 10.26,-2.084 3.452,-0.301 6.933,-0.328 10.399,0.084 3.467,0.395 6.901,1.163 10.288,2.167 6.779,2.022 13.275,5.252 19.396,9.139 3.057,1.954 6.01,4.099 8.848,6.387 0.423,0.339 0.837,0.688 1.254,1.034 -2.261,0.894 -4.455,1.958 -6.531,3.198 -4.989,3.047 -9.269,6.962 -12.836,11.168 -7.22,8.418 -12.125,17.719 -17.857,25.992 -2.843,4.137 -5.889,8.044 -9.443,11.311 -0.435,0.423 -0.884,0.826 -1.355,1.194 -0.466,0.377 -0.923,0.772 -1.398,1.14 -0.979,0.681 -1.936,1.419 -2.975,2.008 -1.003,0.666 -2.083,1.181 -3.158,1.727 -0.533,0.286 -1.108,0.465 -1.663,0.706 -0.565,0.222 -1.106,0.472 -1.713,0.655 -2.367,0.813 -4.79,1.489 -7.255,1.979 -2.462,0.504 -4.963,0.877 -7.49,1.025 -5.044,0.287 -10.206,-0.163 -15.153,-1.818 4.558,2.541 9.819,3.902 15.122,4.316 2.657,0.212 5.341,0.227 8.014,0.023 2.672,-0.211 5.329,-0.626 7.957,-1.195 5.375,-1.126 10.635,-3.603 15.011,-6.995 4.464,-3.335 8.148,-7.419 11.546,-11.541 6.694,-8.311 12.195,-17.122 18.881,-24.157 3.304,-3.551 6.964,-6.489 10.888,-8.749 3.97,-2.18 8.276,-3.524 12.79,-4.138 l 9.969,-1.355 z"
   id="path5" />&#10;		</g>&#10;		<path
   style="fill:#ffffff"
   d="m 539.039,111.58 c -0.726,-0.731 -1.3,-1.247 -1.948,-1.837 -0.632,-0.569 -1.266,-1.123 -1.906,-1.668 -1.278,-1.088 -2.577,-2.136 -3.896,-3.155 -2.632,-2.044 -5.368,-3.939 -8.19,-5.703 -5.627,-3.55 -11.627,-6.542 -17.915,-8.849 -6.297,-2.268 -12.903,-3.821 -19.617,-4.321 -6.707,-0.514 -13.495,0.075 -19.933,1.754 -1.605,0.427 -3.19,0.97 -4.745,1.459 -1.56,0.476 -3.108,0.99 -4.636,1.56 -3.06,1.127 -6.056,2.43 -8.956,3.923 -5.8,2.972 -11.232,6.739 -15.822,11.376 -4.599,4.61 -8.375,10.05 -10.849,16.018 -2.455,5.974 -3.657,12.378 -3.689,18.726 0.63,-6.315 2.27,-12.505 5.112,-18.073 2.819,-5.574 6.743,-10.509 11.397,-14.569 4.654,-4.067 9.98,-7.309 15.608,-9.823 2.817,-1.255 5.716,-2.327 8.666,-3.228 1.473,-0.457 2.962,-0.86 4.46,-1.226 1.496,-0.376 3.004,-0.546 4.508,-0.745 6.017,-0.749 12.065,-0.548 17.949,0.488 5.886,1.038 11.619,2.864 17.095,5.308 5.495,2.405 10.731,5.439 15.713,8.842 2.149,1.489 4.24,3.064 6.286,4.687 -2.557,0.915 -5.043,2.04 -7.386,3.414 -5.556,3.207 -10.304,7.447 -14.288,11.985 -8.041,9.067 -13.554,19.108 -20.471,27.278 -3.438,4.081 -7.22,7.677 -11.619,10.281 -4.369,2.633 -9.405,4.224 -14.697,4.783 -5.288,0.592 -10.794,0.175 -16.167,-1.08 -2.698,-0.598 -5.362,-1.428 -7.96,-2.471 -2.13,-0.827 -4.203,-1.822 -6.221,-2.959 6.728,-6.759 13.727,-13.257 21.024,-19.42 6.183,-5.214 12.592,-10.169 19.294,-14.738 1.684,-1.127 3.381,-2.241 5.116,-3.29 1.716,-1.087 3.462,-2.129 5.238,-3.124 1.773,-1.003 3.593,-1.913 5.419,-2.842 1.839,-0.895 3.717,-1.717 5.629,-2.504 -4.081,0.642 -8.12,1.734 -12.045,3.124 -1.965,0.691 -3.918,1.43 -5.844,2.233 -1.922,0.814 -3.811,1.696 -5.694,2.598 -7.537,3.604 -14.701,7.94 -21.595,12.642 -13.763,9.457 -26.381,20.51 -37.908,32.589 -11.51,12.1 -21.897,25.311 -30.81,39.517 -7.547,12.087 -14.029,24.962 -18.652,38.535 -0.063,-0.071 -0.123,-0.145 -0.186,-0.216 -1.802,-2.051 -3.689,-4.01 -5.635,-5.897 -3.91,-3.758 -8.099,-7.203 -12.559,-10.23 -4.46,-3.021 -9.117,-5.732 -14.018,-7.876 -4.877,-2.181 -9.951,-3.86 -15.104,-4.984 4.821,2.146 9.442,4.596 13.807,7.392 2.178,1.407 4.28,2.914 6.353,4.44 2.05,1.561 4.05,3.177 5.966,4.882 3.816,3.43 7.427,7.055 10.71,10.944 1.651,1.933 3.233,3.92 4.713,5.964 0.74,1.022 1.466,2.049 2.162,3.086 0.347,0.519 0.686,1.039 1.013,1.56 0.318,0.504 0.666,1.078 0.897,1.495 l 4.096,7.414 3.16,-8.244 c 5.727,-14.941 13.481,-29.059 22.299,-42.474 8.838,-13.416 18.822,-26.107 29.549,-38.151 4.322,-4.839 8.777,-9.565 13.356,-14.174 1.749,1.579 3.664,2.993 5.666,4.288 2.463,1.528 5.063,2.87 7.776,3.99 5.436,2.193 11.32,3.537 17.385,3.676 6.045,0.124 12.303,-1.062 17.995,-3.718 2.838,-1.322 5.507,-2.98 7.98,-4.833 2.463,-1.87 4.719,-3.939 6.829,-6.086 4.202,-4.318 7.786,-8.951 11.25,-13.442 3.459,-4.495 6.827,-8.861 10.436,-12.747 3.629,-3.861 7.492,-7.24 11.811,-9.676 4.3,-2.456 9.019,-4.023 14.027,-4.693 l 10.876,-1.455 z"
   id="path6" />&#10;	</g>&#10;</g></g></g></g></g></svg>
